<mxfile host="app.diagrams.net" modified="2021-04-07T15:57:15.259Z" agent="5.0 (X11)" etag="07xmZcEGkgV2yocIZPJX" version="14.4.9" type="github">
  <diagram name="Page-1" id="099fd60b-425b-db50-ffb0-6b813814b670">
    <mxGraphModel dx="1102" dy="552" grid="1" gridSize="10" guides="1" tooltips="1" connect="1" arrows="1" fold="1" page="1" pageScale="1" pageWidth="850" pageHeight="1100" background="#ffffff" math="0" shadow="0">
      <root>
        <mxCell id="0" />
        <mxCell id="1" parent="0" />
        <mxCell id="10ed09ecd0ef054a-4" value="60x40" style="shape=rect;dashed=0;shadow=0;html=1;whiteSpace=wrap;rounded=0;comic=0;labelBackgroundColor=none;strokeWidth=1;fontFamily=Verdana;fontSize=12;lign=center;" parent="1" vertex="1">
          <mxGeometry x="121" y="50" width="209" height="220" as="geometry" />
        </mxCell>
        <mxCell id="z5QBZnC0dATt_7KdWQLM-4" value="" style="whiteSpace=wrap;html=1;aspect=fixed;" vertex="1" parent="1">
          <mxGeometry x="140" y="80" width="170" height="170" as="geometry" />
        </mxCell>
        <mxCell id="z5QBZnC0dATt_7KdWQLM-5" value="" style="endArrow=classic;startArrow=classic;html=1;" edge="1" parent="1">
          <mxGeometry width="50" height="50" relative="1" as="geometry">
            <mxPoint x="400" y="280" as="sourcePoint" />
            <mxPoint x="400" y="40" as="targetPoint" />
            <Array as="points">
              <mxPoint x="400" y="160" />
            </Array>
          </mxGeometry>
        </mxCell>
        <mxCell id="z5QBZnC0dATt_7KdWQLM-6" value="" style="endArrow=classic;startArrow=classic;html=1;" edge="1" parent="1">
          <mxGeometry width="50" height="50" relative="1" as="geometry">
            <mxPoint x="110" y="300" as="sourcePoint" />
            <mxPoint x="370" y="300" as="targetPoint" />
          </mxGeometry>
        </mxCell>
        <mxCell id="z5QBZnC0dATt_7KdWQLM-7" value="7.5cm" style="text;html=1;align=center;verticalAlign=middle;resizable=0;points=[];autosize=1;" vertex="1" parent="1">
          <mxGeometry x="205" y="310" width="50" height="20" as="geometry" />
        </mxCell>
        <mxCell id="z5QBZnC0dATt_7KdWQLM-8" value="9.5cm" style="text;html=1;align=center;verticalAlign=middle;resizable=0;points=[];autosize=1;" vertex="1" parent="1">
          <mxGeometry x="400" y="140" width="50" height="20" as="geometry" />
        </mxCell>
        <mxCell id="z5QBZnC0dATt_7KdWQLM-9" value="Actor" style="shape=umlActor;verticalLabelPosition=bottom;verticalAlign=top;html=1;outlineConnect=0;" vertex="1" parent="1">
          <mxGeometry x="150" y="100" width="30" height="60" as="geometry" />
        </mxCell>
        <mxCell id="z5QBZnC0dATt_7KdWQLM-11" value="Figura" style="text;html=1;align=center;verticalAlign=middle;resizable=0;points=[];autosize=1;" vertex="1" parent="1">
          <mxGeometry x="175" y="190" width="50" height="20" as="geometry" />
        </mxCell>
        <mxCell id="z5QBZnC0dATt_7KdWQLM-12" value="" style="shape=flexArrow;endArrow=classic;html=1;width=10;endSize=10;" edge="1" parent="1">
          <mxGeometry width="50" height="50" relative="1" as="geometry">
            <mxPoint x="460" y="170" as="sourcePoint" />
            <mxPoint x="560" y="170" as="targetPoint" />
          </mxGeometry>
        </mxCell>
        <mxCell id="z5QBZnC0dATt_7KdWQLM-13" value="60x40" style="shape=rect;dashed=0;shadow=0;html=1;whiteSpace=wrap;rounded=0;comic=0;labelBackgroundColor=none;strokeWidth=1;fontFamily=Verdana;fontSize=12;lign=center;" vertex="1" parent="1">
          <mxGeometry x="581" y="50" width="209" height="220" as="geometry" />
        </mxCell>
        <mxCell id="z5QBZnC0dATt_7KdWQLM-14" value="" style="whiteSpace=wrap;html=1;aspect=fixed;" vertex="1" parent="1">
          <mxGeometry x="600" y="80" width="170" height="170" as="geometry" />
        </mxCell>
        <mxCell id="z5QBZnC0dATt_7KdWQLM-15" value="" style="endArrow=classic;startArrow=classic;html=1;" edge="1" parent="1">
          <mxGeometry width="50" height="50" relative="1" as="geometry">
            <mxPoint x="570" y="300" as="sourcePoint" />
            <mxPoint x="830" y="300" as="targetPoint" />
          </mxGeometry>
        </mxCell>
        <mxCell id="z5QBZnC0dATt_7KdWQLM-16" value="7.5cm" style="text;html=1;align=center;verticalAlign=middle;resizable=0;points=[];autosize=1;" vertex="1" parent="1">
          <mxGeometry x="665" y="310" width="50" height="20" as="geometry" />
        </mxCell>
        <mxCell id="z5QBZnC0dATt_7KdWQLM-17" value="Actor" style="shape=umlActor;verticalLabelPosition=bottom;verticalAlign=top;html=1;outlineConnect=0;" vertex="1" parent="1">
          <mxGeometry x="635" y="100" width="30" height="60" as="geometry" />
        </mxCell>
        <mxCell id="z5QBZnC0dATt_7KdWQLM-18" value="Figura" style="text;html=1;align=center;verticalAlign=middle;resizable=0;points=[];autosize=1;" vertex="1" parent="1">
          <mxGeometry x="660" y="200" width="50" height="20" as="geometry" />
        </mxCell>
        <mxCell id="z5QBZnC0dATt_7KdWQLM-19" value="" style="endArrow=classic;startArrow=classic;html=1;" edge="1" parent="1">
          <mxGeometry width="50" height="50" relative="1" as="geometry">
            <mxPoint x="830" y="270" as="sourcePoint" />
            <mxPoint x="830" y="30" as="targetPoint" />
            <Array as="points">
              <mxPoint x="830" y="150" />
            </Array>
          </mxGeometry>
        </mxCell>
        <mxCell id="z5QBZnC0dATt_7KdWQLM-20" value="9.5cm" style="text;html=1;align=center;verticalAlign=middle;resizable=0;points=[];autosize=1;" vertex="1" parent="1">
          <mxGeometry x="840" y="140" width="50" height="20" as="geometry" />
        </mxCell>
        <mxCell id="z5QBZnC0dATt_7KdWQLM-21" value="" style="shape=flexArrow;endArrow=classic;html=1;width=10;endSize=5.67;" edge="1" parent="1">
          <mxGeometry width="50" height="50" relative="1" as="geometry">
            <mxPoint x="715" y="360" as="sourcePoint" />
            <mxPoint x="715" y="440" as="targetPoint" />
          </mxGeometry>
        </mxCell>
        <mxCell id="z5QBZnC0dATt_7KdWQLM-22" value="60x40" style="shape=rect;dashed=0;shadow=0;html=1;whiteSpace=wrap;rounded=0;comic=0;labelBackgroundColor=none;strokeWidth=1;fontFamily=Verdana;fontSize=12;lign=center;" vertex="1" parent="1">
          <mxGeometry x="581" y="440" width="209" height="220" as="geometry" />
        </mxCell>
        <mxCell id="z5QBZnC0dATt_7KdWQLM-23" value="" style="whiteSpace=wrap;html=1;aspect=fixed;" vertex="1" parent="1">
          <mxGeometry x="600" y="470" width="170" height="170" as="geometry" />
        </mxCell>
        <mxCell id="z5QBZnC0dATt_7KdWQLM-24" value="" style="endArrow=classic;startArrow=classic;html=1;" edge="1" parent="1">
          <mxGeometry width="50" height="50" relative="1" as="geometry">
            <mxPoint x="570" y="690" as="sourcePoint" />
            <mxPoint x="830" y="690" as="targetPoint" />
          </mxGeometry>
        </mxCell>
        <mxCell id="z5QBZnC0dATt_7KdWQLM-25" value="7.5cm" style="text;html=1;align=center;verticalAlign=middle;resizable=0;points=[];autosize=1;" vertex="1" parent="1">
          <mxGeometry x="665" y="700" width="50" height="20" as="geometry" />
        </mxCell>
        <mxCell id="z5QBZnC0dATt_7KdWQLM-26" value="Actor" style="shape=umlActor;verticalLabelPosition=bottom;verticalAlign=top;html=1;outlineConnect=0;" vertex="1" parent="1">
          <mxGeometry x="685" y="490" width="30" height="60" as="geometry" />
        </mxCell>
        <mxCell id="z5QBZnC0dATt_7KdWQLM-27" value="Figura" style="text;html=1;align=center;verticalAlign=middle;resizable=0;points=[];autosize=1;" vertex="1" parent="1">
          <mxGeometry x="665" y="570" width="50" height="20" as="geometry" />
        </mxCell>
        <mxCell id="z5QBZnC0dATt_7KdWQLM-28" value="" style="endArrow=classic;startArrow=classic;html=1;" edge="1" parent="1">
          <mxGeometry width="50" height="50" relative="1" as="geometry">
            <mxPoint x="830" y="660" as="sourcePoint" />
            <mxPoint x="830" y="420" as="targetPoint" />
            <Array as="points">
              <mxPoint x="830" y="540" />
            </Array>
          </mxGeometry>
        </mxCell>
        <mxCell id="z5QBZnC0dATt_7KdWQLM-30" value="60x40" style="shape=rect;dashed=0;shadow=0;html=1;whiteSpace=wrap;rounded=0;comic=0;labelBackgroundColor=none;strokeWidth=1;fontFamily=Verdana;fontSize=12;lign=center;" vertex="1" parent="1">
          <mxGeometry x="110" y="410" width="209" height="220" as="geometry" />
        </mxCell>
        <mxCell id="z5QBZnC0dATt_7KdWQLM-31" value="" style="whiteSpace=wrap;html=1;aspect=fixed;" vertex="1" parent="1">
          <mxGeometry x="129" y="435" width="170" height="170" as="geometry" />
        </mxCell>
        <mxCell id="z5QBZnC0dATt_7KdWQLM-32" value="" style="endArrow=classic;startArrow=classic;html=1;" edge="1" parent="1">
          <mxGeometry width="50" height="50" relative="1" as="geometry">
            <mxPoint x="99" y="660" as="sourcePoint" />
            <mxPoint x="359" y="660" as="targetPoint" />
          </mxGeometry>
        </mxCell>
        <mxCell id="z5QBZnC0dATt_7KdWQLM-33" value="Actor" style="shape=umlActor;verticalLabelPosition=bottom;verticalAlign=top;html=1;outlineConnect=0;" vertex="1" parent="1">
          <mxGeometry x="225" y="460" width="30" height="60" as="geometry" />
        </mxCell>
        <mxCell id="z5QBZnC0dATt_7KdWQLM-34" value="Figura" style="text;html=1;align=center;verticalAlign=middle;resizable=0;points=[];autosize=1;" vertex="1" parent="1">
          <mxGeometry x="194" y="540" width="50" height="20" as="geometry" />
        </mxCell>
        <mxCell id="z5QBZnC0dATt_7KdWQLM-35" value="" style="endArrow=classic;startArrow=classic;html=1;" edge="1" parent="1">
          <mxGeometry width="50" height="50" relative="1" as="geometry">
            <mxPoint x="359" y="630" as="sourcePoint" />
            <mxPoint x="359" y="390" as="targetPoint" />
            <Array as="points">
              <mxPoint x="359" y="510" />
            </Array>
          </mxGeometry>
        </mxCell>
        <mxCell id="z5QBZnC0dATt_7KdWQLM-36" value="" style="shape=flexArrow;endArrow=classic;html=1;" edge="1" parent="1">
          <mxGeometry width="50" height="50" relative="1" as="geometry">
            <mxPoint x="540" y="520" as="sourcePoint" />
            <mxPoint x="450" y="520" as="targetPoint" />
          </mxGeometry>
        </mxCell>
        <mxCell id="z5QBZnC0dATt_7KdWQLM-43" value="60x40" style="shape=rect;dashed=0;shadow=0;html=1;whiteSpace=wrap;rounded=0;comic=0;labelBackgroundColor=none;strokeWidth=1;fontFamily=Verdana;fontSize=12;lign=center;" vertex="1" parent="1">
          <mxGeometry x="110.5" y="730" width="209" height="220" as="geometry" />
        </mxCell>
        <mxCell id="z5QBZnC0dATt_7KdWQLM-44" value="" style="whiteSpace=wrap;html=1;aspect=fixed;" vertex="1" parent="1">
          <mxGeometry x="129.5" y="755" width="170" height="170" as="geometry" />
        </mxCell>
        <mxCell id="z5QBZnC0dATt_7KdWQLM-45" value="" style="endArrow=classic;startArrow=classic;html=1;" edge="1" parent="1">
          <mxGeometry width="50" height="50" relative="1" as="geometry">
            <mxPoint x="99.5" y="980" as="sourcePoint" />
            <mxPoint x="359.5" y="980" as="targetPoint" />
          </mxGeometry>
        </mxCell>
        <mxCell id="z5QBZnC0dATt_7KdWQLM-46" value="Actor" style="shape=umlActor;verticalLabelPosition=bottom;verticalAlign=top;html=1;outlineConnect=0;" vertex="1" parent="1">
          <mxGeometry x="255" y="780" width="30" height="60" as="geometry" />
        </mxCell>
        <mxCell id="z5QBZnC0dATt_7KdWQLM-47" value="Figura" style="text;html=1;align=center;verticalAlign=middle;resizable=0;points=[];autosize=1;" vertex="1" parent="1">
          <mxGeometry x="194.5" y="860" width="50" height="20" as="geometry" />
        </mxCell>
        <mxCell id="z5QBZnC0dATt_7KdWQLM-48" value="" style="endArrow=classic;startArrow=classic;html=1;" edge="1" parent="1">
          <mxGeometry width="50" height="50" relative="1" as="geometry">
            <mxPoint x="359.5" y="950" as="sourcePoint" />
            <mxPoint x="359.5" y="710" as="targetPoint" />
            <Array as="points">
              <mxPoint x="359.5" y="830" />
            </Array>
          </mxGeometry>
        </mxCell>
        <mxCell id="z5QBZnC0dATt_7KdWQLM-51" value="" style="shape=flexArrow;endArrow=classic;html=1;" edge="1" parent="1">
          <mxGeometry width="50" height="50" relative="1" as="geometry">
            <mxPoint x="218.5" y="670" as="sourcePoint" />
            <mxPoint x="218.5" y="720" as="targetPoint" />
          </mxGeometry>
        </mxCell>
        <mxCell id="z5QBZnC0dATt_7KdWQLM-52" value="" style="endArrow=none;dashed=1;html=1;" edge="1" parent="1">
          <mxGeometry width="50" height="50" relative="1" as="geometry">
            <mxPoint x="121" y="1000" as="sourcePoint" />
            <mxPoint x="850" y="1000" as="targetPoint" />
          </mxGeometry>
        </mxCell>
        <mxCell id="z5QBZnC0dATt_7KdWQLM-53" value="t&amp;lt;2s" style="text;html=1;align=center;verticalAlign=middle;resizable=0;points=[];autosize=1;" vertex="1" parent="1">
          <mxGeometry x="450" y="1020" width="40" height="20" as="geometry" />
        </mxCell>
        <mxCell id="z5QBZnC0dATt_7KdWQLM-54" value="" style="endArrow=none;dashed=1;html=1;" edge="1" parent="1">
          <mxGeometry width="50" height="50" relative="1" as="geometry">
            <mxPoint x="90" y="20" as="sourcePoint" />
            <mxPoint x="819" y="20" as="targetPoint" />
          </mxGeometry>
        </mxCell>
        <mxCell id="z5QBZnC0dATt_7KdWQLM-55" value="t&amp;lt;2s" style="text;html=1;align=center;verticalAlign=middle;resizable=0;points=[];autosize=1;" vertex="1" parent="1">
          <mxGeometry x="419" y="40" width="40" height="20" as="geometry" />
        </mxCell>
      </root>
    </mxGraphModel>
  </diagram>
</mxfile>
